# Blender v2.90.1 OBJ File: 'Papierflieger.blend'
# www.blender.org
mtllib Papierflieger.mtl
o Plane_Plane.001
v 0.052174 0.549109 0.657665
v 1.069445 0.441318 -2.402482
v 0.094581 0.599271 -1.335989
v 1.047508 0.520856 -1.364102
v 0.180254 0.684625 0.165134
v 1.036504 0.539161 -1.365991
v 0.072737 -0.035370 -2.377007
v -0.016794 0.404571 2.300768
v -0.027516 0.397834 2.301191
v 0.088464 0.770691 1.185365
v 0.075507 0.777747 1.184476
v 0.155905 0.443461 -2.419564
v 0.090237 0.757908 1.053032
v 0.106155 0.645066 -0.348440
v -0.069244 0.550487 0.655294
v -0.968462 0.464449 -2.442279
v -0.043081 0.386893 2.330804
v 0.043926 -0.046599 -2.376505
v -0.032641 0.600715 -1.338473
v -0.985278 0.543930 -1.403800
v -0.174891 0.688656 0.158199
v -0.042898 0.400814 2.329525
v -0.973797 0.561979 -1.405250
v 0.015419 -0.034720 -2.378126
v -0.067769 0.405150 2.299773
v -0.057227 0.398172 2.300610
v -0.121069 0.773069 1.181273
v -0.107930 0.779830 1.180893
v -0.023602 0.318241 1.293453
v -0.055138 0.445856 -2.423686
v -0.117965 0.760271 1.048966
v -0.081716 0.647199 -0.352109
vt 0.000000 0.000000
vt 0.000000 0.000000
vt 0.000000 0.000000
vt 0.000000 0.000000
vt 0.020006 0.015641
vt 0.000000 0.000000
vt 0.500000 1.000000
vt 0.510003 1.000000
vt 0.000000 0.000000
vt 0.000000 0.000000
vt 0.000000 0.000000
vt 0.000000 0.000000
vt 0.000000 0.000000
vt 0.000000 0.000000
vt 0.000000 0.000000
vt 0.000000 0.000000
vt 0.309065 0.241636
vt 0.654532 1.000000
vt 1.000000 0.781831
vt 1.000000 1.000000
vt 0.000000 0.000000
vt 0.000000 0.000000
vt 0.020006 0.015641
vt 0.510003 1.000000
vt 0.000000 0.000000
vt 0.000000 0.000000
vt 0.000000 0.000000
vt 0.000000 0.000000
vt 0.000000 0.000000
vt 0.000000 0.000000
vt 0.000000 0.000000
vt 0.000000 0.000000
vt 0.309065 0.241636
vt 0.654532 1.000000
vt 1.000000 0.781831
vt 1.000000 1.000000
vn -0.9713 0.2368 -0.0225
vn 0.5012 -0.8607 0.0895
vn 0.9150 -0.4023 0.0297
vn 0.7015 0.6845 0.1985
vn 0.4561 0.7297 0.5094
vn 0.9845 -0.1721 0.0346
vn -0.0165 -0.9961 0.0869
vn 0.0065 0.9482 0.3175
vn -0.3653 0.9284 -0.0685
vn 0.0224 0.9965 -0.0800
vn 0.9766 0.2147 0.0156
vn -0.5237 -0.8491 0.0695
vn -0.9244 -0.3814 -0.0062
vn -0.6930 0.7003 0.1713
vn -0.4590 0.7401 0.4915
vn -0.9887 -0.1497 -0.0039
vn -0.0096 -0.9962 0.0871
vn 0.0026 0.9483 0.3175
vn 0.3887 0.9198 -0.0538
vn 0.0034 0.9968 -0.0804
usemtl Material.002
s off
f 29/1/1 22/2/1 9/3/1 11/4/1
f 8/5/2 17/6/2 18/7/2 7/8/2
f 5/9/3 13/10/3 17/6/3 3/11/3 14/12/3
f 10/13/4 4/14/4 6/15/4 11/4/4
f 17/6/5 8/16/5 9/3/5 22/2/5
f 10/17/6 8/5/6 7/8/6 12/18/6
f 4/19/7 10/17/7 12/18/7 2/20/7
f 8/16/8 10/13/8 11/4/8 9/3/8
f 3/11/9 29/1/9 11/4/9 6/15/9
f 14/12/10 13/10/10 5/9/10
f 29/1/11 28/21/11 26/22/11 22/2/11
f 25/23/12 24/24/12 18/7/12 17/6/12
f 21/25/13 32/26/13 19/27/13 17/6/13 31/28/13
f 27/29/14 28/21/14 23/30/14 20/31/14
f 17/6/15 22/2/15 26/22/15 25/32/15
f 27/33/16 30/34/16 24/24/16 25/23/16
f 20/35/17 16/36/17 30/34/17 27/33/17
f 25/32/18 26/22/18 28/21/18 27/29/18
f 19/27/19 23/30/19 28/21/19 29/1/19
f 32/26/20 21/25/20 31/28/20
l 17 1
l 3 4
l 17 15
l 19 20
